<svg xmlns="http://www.w3.org/2000/svg" xmlns:xlink="http://www.w3.org/1999/xlink" id="Layer_1" style="enable-background:new 0 0 300 300;" viewBox="0 0 300 300" xml:space="preserve"><path d="M232.6,85.2c-5.5,0-11,0.7-16.3,2c-1.8-15.1-8.6-29-19.5-39.8c-13.9-13.6-32.7-20.5-52.4-18.9  c-13.6,1.1-26.5,6.4-37,15.1c-15.1,12.6-23.8,30.6-24.2,50c0,0.5,0,0.9,0,1.4c0,8.2,1.4,16.1,4.3,23.7c1,2.7,4.2,4,6.8,2.7h0  c2.3-1.1,3.5-3.8,2.5-6.2c-2.4-6.4-3.7-13.2-3.7-20.2c0-0.3,0-0.7,0-1l0-0.2c0.6-30.7,26.1-55.6,56.8-55.6  c29.5,0,54.2,23.1,56.6,52.2c-7.5,3.2-14.4,7.7-20.2,13.3c-2.1,2-2,5.4,0.2,7.3h0c2,1.7,4.9,1.7,6.8-0.1c5.8-5.5,12.7-9.8,20.2-12.5  c6.1-2.2,12.6-3.3,19.1-3.3c31.6,0,57.3,26,56.8,57.7c-0.5,31.2-26.5,55.9-57.6,55.9h-50.3c2.3-3,4.3-6.2,6.1-9.7  c1.3-2.6,0.2-5.8-2.5-6.9l0,0c-2.4-1-5.2,0-6.4,2.3c-9.7,18.7-29,30.6-50.4,30.6c-21,0-40.1-11.6-50-29.8c-1.2-2.3-4-3.2-6.4-2.2  l0,0c-2.7,1.2-3.8,4.4-2.4,7c1.7,3.1,3.5,6,5.6,8.7h-6.8c-31.2,0-57.2-24.7-57.6-55.9c-0.5-31.7,25.2-57.7,56.8-57.7  c0.5,0,1.1,0,1.6,0c2.4,0.1,4.5-1.7,5-4.1v0c0.6-3-1.6-5.8-4.7-5.9c-0.6,0-1.3,0-2,0c-37.2,0-67.4,30.5-66.8,67.8  c0.6,36.6,31.1,65.7,67.8,65.7h16c11.9,10.3,27.4,16.4,43.8,16.4c16.5,0,31.9-6,43.8-16.4h56.4v38.5c0,2.5-2,4.5-4.5,4.5H76  c-2.5,0-4.5-2-4.5-4.5v-26.9c0-2.8-2.2-5-5-5s-5,2.2-5,5v26.9c0,8,6.5,14.5,14.5,14.5h148c8,0,14.5-6.5,14.5-14.5v-38.9  c33.5-3.4,60.3-31.1,60.9-65.4C299.9,115.7,269.8,85.2,232.6,85.2z" id="XMLID_74_"></path></svg>