<svg xmlns="http://www.w3.org/2000/svg" xmlns:xlink="http://www.w3.org/1999/xlink" id="Layer_1" style="enable-background:new 0 0 300 300;" viewBox="0 0 300 300" xml:space="preserve"><g id="XMLID_2_"><path d="M125.6,19.4c-7.2,0.4-12.9,6.5-12.9,13.9v47.4c0,1.9-1.4,3.6-3.3,3.8c-1,0.1-2-0.2-2.8-0.9   c-0.8-0.7-1.2-1.7-1.2-2.7V33.4c0-7.5-5.7-13.6-12.9-14c-3.8-0.2-7.3,1.1-10,3.7c-2.7,2.6-4.2,6.1-4.2,9.8v47.8   c0,2-1.4,3.6-3.3,3.8c-1,0.1-2-0.2-2.8-0.9C71.4,83,71,82,71,81V33.4c0-7.5-5.7-13.6-12.9-14c-3.8-0.2-7.3,1.1-10,3.7   c-2.7,2.6-4.2,6.1-4.2,9.8v50.7c0,26.1,11.6,49.3,29.5,59.3v118.6c0,10.1,8,18.6,17.8,19c0.2,0,0.5,0,0.7,0c4.8,0,9.4-1.8,12.8-5.2   c3.7-3.5,5.7-8.3,5.7-13.4V143c17.9-10,29.5-33.2,29.5-59.3V33c0-3.8-1.5-7.2-4.2-9.8C132.9,20.6,129.4,19.3,125.6,19.4z    M100.4,139.9v121.9c0,4.5-3.4,8.4-7.7,8.8c-2.4,0.2-4.8-0.5-6.6-2.2c-1.8-1.6-2.8-3.9-2.8-6.3V139.9c0-1.9-1.1-3.7-2.9-4.5   c-15.9-7.3-26.6-28-26.6-51.7V33.2c0-2,1.4-3.6,3.3-3.8c0.1,0,0.2,0,0.4,0c0.9,0,1.8,0.3,2.4,0.9C60.6,31,61,32,61,33v47.6   c0,7.5,5.7,13.6,12.9,14c3.8,0.2,7.3-1.1,10-3.7c2.7-2.6,4.2-6.1,4.2-9.8V33.2c0-2,1.4-3.6,3.3-3.8c1-0.1,2,0.2,2.8,0.9   C95,31,95.5,32,95.5,33v47.6c0,7.5,5.7,13.6,12.9,14c3.8,0.2,7.3-1.1,10-3.7c2.7-2.6,4.2-6.1,4.2-9.8V33.2c0-2,1.4-3.6,3.3-3.8   c1-0.1,2,0.2,2.8,0.9c0.8,0.7,1.2,1.7,1.2,2.7v50.7c0,23.7-10.7,44.4-26.6,51.7C101.6,136.2,100.4,138,100.4,139.9z" id="XMLID_282_"></path><path d="M241.1,42.4c-10.4-14.8-24-23-38.2-23c-14.3,0-27.9,8.2-38.2,23c-9.6,13.6-15.1,31.2-15.1,48.2   c0,25.9,13.3,46.6,34.7,54.2v116.8c0,10.1,8,18.6,17.8,19c0.2,0,0.5,0,0.7,0c4.8,0,9.4-1.8,12.8-5.2c3.7-3.5,5.7-8.3,5.7-13.4   V144.8c21.4-7.6,34.7-28.3,34.7-54.2C256.2,73.6,250.7,56,241.1,42.4z M211.5,141.1v120.7c0,4.5-3.4,8.4-7.7,8.8   c-2.5,0.2-4.8-0.5-6.6-2.2c-1.8-1.6-2.8-3.9-2.8-6.3V141.1c0-2.2-1.5-4.2-3.7-4.8c-19.2-5.3-31.1-22.8-31.1-45.7   c0-15,4.8-30.5,13.2-42.5c8.5-12.1,19.1-18.7,30.1-18.7S224.5,36,233,48.1c8.4,12,13.2,27.5,13.2,42.5c0,22.9-11.9,40.4-31.1,45.7   C213,136.9,211.5,138.9,211.5,141.1z" id="XMLID_285_"></path></g></svg>