<svg xmlns="http://www.w3.org/2000/svg" xmlns:xlink="http://www.w3.org/1999/xlink" id="Layer_1" style="enable-background:new 0 0 300 300;" viewBox="0 0 300 300" xml:space="preserve"><g id="XMLID_6_"><path d="M272.5,123.9h-18.8c-1.7-5.6-6.9-9.6-13.1-9.6H48c-6.1,0-11.3,4.1-13.1,9.6H16.1c-7.8,0-14.2,6.4-14.2,14.2   v2c0,7.8,6.4,14.2,14.2,14.2h18.2v65.2c0,17.3,14.1,31.3,31.3,31.3H223c17.3,0,31.3-14.1,31.3-31.3v-65.2h18.2   c7.8,0,14.2-6.4,14.2-14.2v-2C286.7,130.2,280.3,123.9,272.5,123.9z M34.3,144.2H16.1c-2.3,0-4.2-1.9-4.2-4.2v-2   c0-2.3,1.9-4.2,4.2-4.2h18.2V144.2z M244.3,154.2v65.2c0,11.8-9.6,21.3-21.3,21.3H65.6c-11.8,0-21.3-9.6-21.3-21.3v-65.2v-26.3   c0-2,1.6-3.7,3.7-3.7h192.7c2,0,3.7,1.6,3.7,3.7V154.2z M276.7,140.1c0,2.3-1.9,4.2-4.2,4.2h-18.2v-10.3h18.2   c2.3,0,4.2,1.9,4.2,4.2V140.1z" id="XMLID_26_"></path><path d="M42,104.9c0.7,0,1.3-0.1,2-0.3l198.1-50.8c3.5-0.9,5.8-3.9,5.8-7.5c0-3.6-2.3-6.6-5.7-7.5   c-16.6-4.4-46.8-10.1-82.8-5.7c-1.9-4-5-7.3-8.9-9.6c-5.2-3.1-11.3-4-17.2-2.4c-10.2,2.6-17,11.9-17,22   C77.4,56.5,50.2,78.6,36.7,91.5c-2.6,2.5-3.2,6.2-1.4,9.4C36.7,103.4,39.2,104.9,42,104.9z M135.8,30.8c3.3-0.8,6.7-0.4,9.6,1.4   c1.2,0.7,2.2,1.6,3.1,2.6c-5.3,0.9-10.6,2-16,3.4c-1.9,0.5-3.8,1-5.7,1.6C127.9,35.5,131.2,32,135.8,30.8z M135,47.9   c18-4.6,35.2-6.2,50.4-6.2c18.7,0,34.5,2.4,45.3,4.7L50.3,92.7C65.5,79.5,95,58.1,135,47.9z" id="XMLID_54_"></path><path d="M71.8,257.6c-2.8,0-5,2.2-5,5v12c0,2.8,2.2,5,5,5c2.8,0,5-2.2,5-5v-12C76.8,259.9,74.6,257.6,71.8,257.6z" id="XMLID_56_"></path><path d="M95.5,257.6c-2.8,0-5,2.2-5,5v12c0,2.8,2.2,5,5,5c2.8,0,5-2.2,5-5v-12C100.5,259.9,98.3,257.6,95.5,257.6z" id="XMLID_57_"></path><path d="M119.2,257.6c-2.8,0-5,2.2-5,5v12c0,2.8,2.2,5,5,5c2.8,0,5-2.2,5-5v-12   C124.2,259.9,121.9,257.6,119.2,257.6z" id="XMLID_58_"></path><path d="M142.8,257.6c-2.8,0-5,2.2-5,5v12c0,2.8,2.2,5,5,5s5-2.2,5-5v-12C147.8,259.9,145.6,257.6,142.8,257.6z" id="XMLID_59_"></path><path d="M166.5,257.6c-2.8,0-5,2.2-5,5v12c0,2.8,2.2,5,5,5c2.8,0,5-2.2,5-5v-12   C171.5,259.9,169.3,257.6,166.5,257.6z" id="XMLID_60_"></path><path d="M190.2,257.6c-2.8,0-5,2.2-5,5v12c0,2.8,2.2,5,5,5c2.8,0,5-2.2,5-5v-12   C195.2,259.9,192.9,257.6,190.2,257.6z" id="XMLID_61_"></path><path d="M213.8,257.6c-2.8,0-5,2.2-5,5v12c0,2.8,2.2,5,5,5c2.8,0,5-2.2,5-5v-12   C218.8,259.9,216.6,257.6,213.8,257.6z" id="XMLID_62_"></path><path d="M296,67c-0.7-1.2-1.6-2.4-2.6-3.4c-3.5-3.4-8-4.9-12.5-4.4c-3.3-6.2-10.6-9.5-17.7-7.7   c-1.8,0.5-3.4,1.2-4.8,2.2c-2.9,1.9-2.6,6.2,0.3,8l0.5,0.3c1.6,0.9,3.5,0.8,5-0.1c0.3-0.2,0.7-0.4,1.1-0.5c2.4-0.8,5.1,0.3,6.4,2.4   c0.6,1,0.8,0.9,1,2.2l0,0c0.5,3.4,4.1,5.3,7.2,3.8c0.4-0.2,0.7-0.3,1.1-0.4c1.5-0.4,3-0.2,4.3,0.6c1.3,0.8,2.2,2,2.6,3.4   c0.8,3-1,6.1-4,6.8c-0.4,0.1-0.7,0.2-1.1,0.2h0c-3.2,0.2-5.4,3.3-4.5,6.4l0,0l0.1,0.2c0.7,3-1.1,6-4,6.7c-0.7,0.2-1.4,0.2-2.2,0.1   c-1.8-0.2-3.6,0.5-4.7,2c-2.2,3-0.4,7.3,3.3,7.9c0.7,0.1,1.4,0.1,2.1,0.1c1.3,0,2.6-0.2,4-0.5c6.7-1.7,11.2-7.6,11.6-14.2   c3.1-1.3,5.8-3.6,7.5-6.5C298.7,77.9,298.8,72.1,296,67z" id="XMLID_63_"></path><path d="M231,78.6c0.7,2.7,3.4,4.3,6.1,3.6l15.5-4.1c2.7-0.7,4.3-3.4,3.6-6.1c-0.7-2.7-3.4-4.3-6.1-3.6l-15.5,4.1   C231.9,73.2,230.3,75.9,231,78.6z" id="XMLID_64_"></path><path d="M239.2,91c-2.7,0.7-4.3,3.4-3.6,6.1l0,0c0.7,2.7,3.4,4.3,6.1,3.6l15.5-4.1c2.7-0.7,4.3-3.4,3.6-6.1l0,0   c-0.7-2.7-3.4-4.3-6.1-3.6L239.2,91z" id="XMLID_65_"></path></g></svg>